<svg xmlns="http://www.w3.org/2000/svg" width="782.654" height="625.927" viewBox="0 0 782.654 625.927">
<clipPath id='logomark'>
  <path id="Union_60" data-name="Union 60" d="M2887.942-36.587c-53.3-6.136-71.264-38.142-77.321-59.024l-.776.223C2806.551-95.387,2764-311.7,2764-311.7v-348.07h781.463l.281,352.35-.01,0a86.863,86.863,0,0,1,.92,12.514c0,104.835-40.9,128.407-79,180.931S3322.778-33.035,3261-59.621s-147.026-16.467-179.315,0c-25.67,13.092-82.153,25.775-144.63,25.775A430.639,430.639,0,0,1,2887.942-36.587Z" transform="translate(-2764 659.773)" fill="#ddedfd"/>
</clipPath>
</svg>
