<svg xmlns="http://www.w3.org/2000/svg" width="782.654" height="636.104" viewBox="0 0 782.654 636.104">
  <path id="Union_60" data-name="Union 60" d="M2874.7-34.771c-76.755-23.815-82-82-82-82s-.937-21.517.464-50.555C2780.019-230.267,2764-311.7,2764-311.7v-348.07h781.463l.281,352.35-.01,0a86.863,86.863,0,0,1,.92,12.514c0,104.835-18.909,136.337-68.955,186.134s-132.3,76.848-214,58-146-21-196,0c-33.429,14.04-74.118,27.1-120.356,27.1A243.609,243.609,0,0,1,2874.7-34.771Z" transform="translate(-2764 659.773)" fill="#ddedfd"/>
</svg>
